<svg width="40" height="40" viewBox="0 0 40 40" fill="none" xmlns="http://www.w3.org/2000/svg">
<g clip-path="url(#clip0_12535_18615)">
<rect width="40" height="40" rx="9.14062" fill="black"/>
<g clip-path="url(#clip1_12535_18615)">
<rect width="40" height="40" rx="8.97001" fill="black"/>
<g filter="url(#filter0_f_12535_18615)">
<path d="M75.9017 43.0498C72.4887 61.6333 28.3014 49.0994 9.29424 40.8085C-5.19399 36.3436 7.69971 48.7547 -24.9356 40.4698C-57.5709 32.185 2.70373 8.34874 0.212858 25.6623C-2.27802 42.9758 34.3983 43.419 23.0649 30.2163C11.7315 17.0137 38.2998 3.28349 58.1818 3.20507C78.0638 3.12666 33.2643 5.26779 50.6915 36.7458C65.2645 63.0682 79.2557 18.0902 80.9776 20.3298C82.6995 22.5695 80.168 19.8205 75.9017 43.0498Z" fill="url(#paint0_linear_12535_18615)"/>
</g>
<mask id="mask0_12535_18615" style="mask-type:alpha" maskUnits="userSpaceOnUse" x="0" y="0" width="40" height="41">
<rect x="40" y="40.2432" width="40" height="40" rx="8.93333" transform="rotate(-180 40 40.2432)" fill="url(#paint1_linear_12535_18615)"/>
</mask>
<g mask="url(#mask0_12535_18615)">
<g filter="url(#filter1_f_12535_18615)">
<path d="M40 11.7105C40 7.72309 39.5848 6.27714 38.8052 4.81938C38.0256 3.36163 36.8815 2.21758 35.4238 1.43796C33.966 0.658343 32.5201 0.243167 28.5326 0.243167L11.4674 0.243165C7.47993 0.243165 6.03398 0.658341 4.57622 1.43796C3.11847 2.21757 1.97441 3.36163 1.1948 4.81938C0.415183 6.27713 6.65769e-06 7.72308 6.3091e-06 11.7105L4.81721e-06 28.7758C4.46861e-06 32.7632 0.41518 34.2092 1.1948 35.6669C1.97441 37.1247 3.11847 38.2688 4.57622 39.0484C6.03398 39.828 7.47992 40.2432 11.4674 40.2432L28.5326 40.2432C32.5201 40.2432 33.966 39.828 35.4238 39.0484C36.8815 38.2688 38.0256 37.1247 38.8052 35.6669C39.5848 34.2092 40 32.7632 40 28.7758L40 11.7105Z" stroke="#6200FF" stroke-width="0.9375"/>
</g>
<g style="mix-blend-mode:plus-lighter" opacity="0.3" filter="url(#filter2_f_12535_18615)">
<path d="M40 11.7105C40 7.72309 39.5848 6.27714 38.8052 4.81938C38.0256 3.36163 36.8815 2.21758 35.4238 1.43796C33.966 0.658343 32.5201 0.243167 28.5326 0.243167L11.4674 0.243165C7.47993 0.243165 6.03398 0.658341 4.57622 1.43796C3.11847 2.21757 1.97441 3.36163 1.1948 4.81938C0.415183 6.27713 6.65769e-06 7.72308 6.3091e-06 11.7105L4.81721e-06 28.7758C4.46861e-06 32.7632 0.41518 34.2092 1.1948 35.6669C1.97441 37.1247 3.11847 38.2688 4.57622 39.0484C6.03398 39.828 7.47992 40.2432 11.4674 40.2432L28.5326 40.2432C32.5201 40.2432 33.966 39.828 35.4238 39.0484C36.8815 38.2688 38.0256 37.1247 38.8052 35.6669C39.5848 34.2092 40 32.7632 40 28.7758L40 11.7105Z" stroke="url(#paint2_linear_12535_18615)" stroke-width="2.14844"/>
</g>
<g style="mix-blend-mode:plus-lighter" opacity="0.6" filter="url(#filter3_f_12535_18615)">
<path d="M40 11.7105C40 7.72309 39.5848 6.27714 38.8052 4.81938C38.0256 3.36163 36.8815 2.21758 35.4238 1.43796C33.966 0.658343 32.5201 0.243167 28.5326 0.243167L11.4674 0.243165C7.47993 0.243165 6.03398 0.658341 4.57622 1.43796C3.11847 2.21757 1.97441 3.36163 1.1948 4.81938C0.415183 6.27713 6.65769e-06 7.72308 6.3091e-06 11.7105L4.81721e-06 28.7758C4.46861e-06 32.7632 0.41518 34.2092 1.1948 35.6669C1.97441 37.1247 3.11847 38.2688 4.57622 39.0484C6.03398 39.828 7.47992 40.2432 11.4674 40.2432L28.5326 40.2432C32.5201 40.2432 33.966 39.828 35.4238 39.0484C36.8815 38.2688 38.0256 37.1247 38.8052 35.6669C39.5848 34.2092 40 32.7632 40 28.7758L40 11.7105Z" stroke="url(#paint3_linear_12535_18615)" stroke-width="1.25"/>
</g>
<g style="mix-blend-mode:plus-lighter" opacity="0.7" filter="url(#filter4_f_12535_18615)">
<path d="M40 11.7105C40 7.72309 39.5848 6.27714 38.8052 4.81938C38.0256 3.36163 36.8815 2.21758 35.4238 1.43796C33.966 0.658343 32.5201 0.243167 28.5326 0.243167L11.4674 0.243165C7.47993 0.243165 6.03398 0.658341 4.57622 1.43796C3.11847 2.21757 1.97441 3.36163 1.1948 4.81938C0.415183 6.27713 6.65769e-06 7.72308 6.3091e-06 11.7105L4.81721e-06 28.7758C4.46861e-06 32.7632 0.41518 34.2092 1.1948 35.6669C1.97441 37.1247 3.11847 38.2688 4.57622 39.0484C6.03398 39.828 7.47992 40.2432 11.4674 40.2432L28.5326 40.2432C32.5201 40.2432 33.966 39.828 35.4238 39.0484C36.8815 38.2688 38.0256 37.1247 38.8052 35.6669C39.5848 34.2092 40 32.7632 40 28.7758L40 11.7105Z" stroke="url(#paint4_linear_12535_18615)" stroke-width="0.3125"/>
</g>
</g>
<path fill-rule="evenodd" clip-rule="evenodd" d="M33.9025 29.6245C33.9 29.4917 33.8864 29.3146 33.8728 29.2323C33.8543 29.1474 33.8272 28.8511 33.8062 28.5696C33.779 28.1614 33.7765 28.0188 33.8062 27.8651C33.8407 27.7028 33.8383 27.6536 33.7975 27.5528C33.7716 27.4864 33.7518 27.3806 33.7518 27.3143C33.7518 27.2479 33.7382 27.1495 33.7246 27.0893C33.6505 26.7954 33.6345 26.6675 33.632 26.3712C33.632 26.1942 33.616 26.011 33.6024 25.9606C33.5752 25.8708 33.5678 25.8684 33.4085 25.8671C33.3183 25.8671 33.2356 25.8536 33.2269 25.8401C33.2035 25.8032 33.0108 25.7762 32.8305 25.7786C32.7527 25.7811 32.6811 25.7675 32.6675 25.7491C32.649 25.7196 32.481 25.6778 32.1859 25.6372C32.1031 25.6262 32.0179 25.6028 31.9944 25.5893C31.9697 25.5708 31.8586 25.5499 31.7462 25.5389C31.23 25.4885 30.9842 25.454 30.9558 25.427C30.9398 25.4135 30.8681 25.4012 30.794 25.3999C30.7199 25.3999 30.5754 25.379 30.4692 25.3569C30.3655 25.3335 30.1098 25.2954 29.8974 25.2721C29.6899 25.245 29.4207 25.2143 29.2985 25.1958C28.8168 25.1319 28.3055 25.079 28.098 25.0655C27.9758 25.0569 27.7572 25.0446 27.6139 25.0385C27.4694 25.0298 27.3151 25.0065 27.2731 24.9905C27.2138 24.9696 27.1644 24.9696 27.0891 24.9979C27.0088 25.0274 26.9767 25.0274 26.9483 25.0003C26.905 24.9573 26.8013 24.9573 26.7568 25.0003C26.7297 25.0274 26.7037 25.0274 26.6556 25.0003C26.5679 24.961 26.3542 24.9266 26.2085 24.9315C26.1443 24.9364 26.0727 24.9241 26.0467 24.9106C26.0233 24.8946 25.9776 24.8946 25.9381 24.9106C25.8961 24.9241 25.8393 24.9241 25.7911 24.9057C25.7491 24.8872 25.5145 24.8762 25.2724 24.8737C24.9266 24.8737 24.8093 24.8626 24.7376 24.8282C24.6524 24.7864 24.6314 24.7852 24.5647 24.8196C24.5055 24.854 24.4746 24.854 24.4338 24.8282C24.4017 24.8073 24.3301 24.7913 24.2721 24.7913C24.214 24.7913 24.1708 24.7778 24.1708 24.7618C24.1708 24.7163 24.0856 24.7299 23.9608 24.7987C23.8596 24.8565 23.8386 24.8577 23.8089 24.8196C23.7879 24.7962 23.7422 24.7827 23.7027 24.7876C23.6657 24.7926 23.6064 24.7827 23.5693 24.7618C23.4915 24.72 23.0395 24.7385 22.8395 24.7938C22.7086 24.8307 22.695 24.8282 22.6555 24.7753C22.6209 24.7249 22.5727 24.7176 22.243 24.7114C22.038 24.7065 21.8144 24.704 21.7453 24.704C21.6761 24.704 21.6205 24.693 21.6205 24.6807C21.6205 24.6684 21.5329 24.6573 21.4242 24.6536C21.3155 24.6487 21.2142 24.6303 21.1982 24.6167C21.1611 24.5799 20.8388 24.5799 20.8141 24.6167C20.7882 24.6585 20.6325 24.6536 20.6177 24.6094C20.6066 24.5799 20.2658 24.5454 19.7903 24.5319C19.7742 24.5319 19.6495 24.5368 19.5136 24.543C19.3704 24.5503 19.258 24.543 19.2469 24.527C19.2382 24.511 19.1246 24.4901 18.9962 24.4815C18.869 24.4704 18.7331 24.452 18.6986 24.4385C18.6207 24.4114 18.6084 24.3241 18.6825 24.3241C18.7702 24.3241 18.9307 24.2577 19.0555 24.1729C19.1222 24.1249 19.2123 24.093 19.2679 24.093C19.3235 24.093 19.4087 24.0635 19.4642 24.0266C19.5198 23.9872 19.6396 23.9344 19.7285 23.9073C19.8508 23.868 19.9385 23.8114 20.0607 23.6946C20.2225 23.5458 20.2361 23.5385 20.346 23.5545C20.4102 23.5631 20.493 23.5889 20.53 23.6049C20.5807 23.6307 20.6066 23.6307 20.6288 23.6049C20.6498 23.5864 20.6869 23.568 20.7116 23.568C20.7363 23.568 20.7993 23.5311 20.8524 23.4856C20.903 23.4376 20.9932 23.3823 21.0549 23.3639C21.1142 23.343 21.1796 23.311 21.1957 23.2901C21.2118 23.2717 21.3044 23.2446 21.4007 23.2372C21.8663 23.1942 21.9355 23.1844 22.0318 23.1413C22.0849 23.1155 22.1602 23.0651 22.1936 23.0307C22.2306 22.9913 22.3047 22.9594 22.3714 22.9508C22.4332 22.9422 22.5579 22.9163 22.6456 22.893C22.7357 22.8672 22.8901 22.8315 22.9914 22.8106C23.1593 22.7786 23.3211 22.6827 23.3211 22.6139C23.3211 22.6004 23.3693 22.5635 23.4323 22.5364C23.4915 22.5069 23.5607 22.475 23.5866 22.4627C23.6138 22.4516 23.7015 22.4393 23.7867 22.4368C23.8806 22.4368 23.9707 22.4184 24.0176 22.3889C24.0609 22.3594 24.156 22.336 24.2276 22.3336C24.3042 22.3336 24.3746 22.325 24.3906 22.3127C24.4067 22.3041 24.503 22.2918 24.603 22.2918C24.7068 22.2893 24.8451 22.2758 24.9118 22.2623C25.1032 22.2229 25.5453 22.2463 25.6861 22.3016C25.8491 22.368 25.9331 22.3274 26.0986 22.095C26.1752 21.9868 26.1888 21.8246 26.1196 21.8246C26.085 21.8246 26.0764 21.7766 26.0764 21.5774C26.0764 21.4446 26.0628 21.3254 26.0467 21.3143C26.0307 21.3057 26.0196 21.2319 26.0196 21.1532C26.0196 21.0746 26.0035 20.975 25.985 20.9282C25.9393 20.8176 25.8948 20.4721 25.8998 20.2889C25.9022 20.1992 25.8924 20.1352 25.8738 20.1352C25.8528 20.1352 25.8417 20.0504 25.8417 19.9225C25.8417 19.8057 25.8306 19.6975 25.8158 19.6815C25.7886 19.6545 25.738 19.3717 25.696 18.9844C25.6799 18.8565 25.6565 18.6869 25.638 18.6057C25.6194 18.5283 25.6083 18.3402 25.612 18.1902C25.6145 18.1213 25.654 17.9775 25.6231 17.9148C25.6071 17.8877 25.5453 17.8643 25.5194 17.8459C25.4638 17.809 25.391 17.777 25.3539 17.777C25.3193 17.777 25.2761 17.7561 25.2551 17.7316C25.2304 17.7045 25.1649 17.6898 25.0662 17.6898C24.9785 17.6898 24.8525 17.6689 24.7833 17.6443C24.7142 17.6209 24.629 17.6012 24.5969 17.6049C24.5647 17.6074 24.4795 17.5963 24.4079 17.5754C24.3301 17.5545 24.2165 17.5459 24.1251 17.5594C24.0102 17.573 23.9658 17.5668 23.9473 17.5361C23.9312 17.509 23.8065 17.4832 23.5446 17.4598C23.3322 17.4414 23.0284 17.4119 22.8703 17.3959C22.7086 17.3799 22.5221 17.3615 22.4579 17.3566C22.3936 17.3492 22.306 17.359 22.2615 17.375C22.1997 17.3984 22.1652 17.3934 22.1071 17.3566C22.0491 17.3197 22.0194 17.3148 21.9737 17.3406C21.928 17.3639 21.891 17.3639 21.833 17.3406C21.7564 17.3111 21.4069 17.2828 20.8635 17.2693C20.7165 17.2643 20.5844 17.2459 20.5412 17.2213L20.4671 17.182L20.5387 17.1684C20.5757 17.1635 20.64 17.1291 20.6844 17.0885C20.7437 17.0332 20.7931 17.0197 20.9191 17.0197C21.0302 17.0197 21.087 17.0062 21.1105 16.9742C21.1339 16.9422 21.2068 16.9238 21.3612 16.9152C21.6773 16.8992 21.8589 16.8734 21.8589 16.8414C21.8589 16.7959 22.0874 16.6988 22.1948 16.6988C22.2541 16.6988 22.3257 16.6877 22.3566 16.6693C22.3961 16.6484 22.4233 16.6533 22.4554 16.6853C22.511 16.743 22.5221 16.7406 22.6122 16.6693C22.6542 16.6398 22.7246 16.6139 22.7715 16.6139C22.8185 16.6139 22.8568 16.598 22.8568 16.582C22.8568 16.5685 22.8802 16.5549 22.9099 16.5549C22.942 16.5549 22.9975 16.518 23.0297 16.475C23.0667 16.4332 23.1334 16.3816 23.1791 16.3607C23.2569 16.3287 23.2643 16.3312 23.2643 16.3816C23.2643 16.4935 23.5335 16.4922 23.7274 16.3791C23.7805 16.3471 23.8423 16.3213 23.8682 16.3213C23.8917 16.3213 23.9102 16.3103 23.9102 16.2918C23.9102 16.2758 23.988 16.2648 24.0831 16.2648C24.2004 16.2648 24.2671 16.2512 24.2906 16.2193C24.3412 16.1603 24.461 16.1639 24.4721 16.2267C24.4795 16.2697 24.4857 16.2697 24.5252 16.2316C24.5549 16.2045 24.6537 16.1812 24.7883 16.1701C24.9105 16.159 25.0143 16.1381 25.0192 16.1197C25.0452 16.0422 25.1687 15.9451 25.2378 15.9451C25.2798 15.9451 25.3465 15.9316 25.3872 15.9107C25.4465 15.8849 25.4811 15.8898 25.5688 15.9316C25.6614 15.9734 25.6935 15.9746 25.7973 15.9451C25.8615 15.9242 25.9442 15.8922 25.9751 15.8689C26.0072 15.8455 26.0653 15.8271 26.0974 15.8271C26.1344 15.8271 26.1715 15.816 26.1801 15.7976C26.1937 15.7791 26.2579 15.7767 26.3481 15.7865C26.4518 15.8025 26.5 15.7951 26.5185 15.7705C26.5346 15.7471 26.5555 15.7447 26.5951 15.7631C26.6247 15.7791 26.7099 15.7926 26.7791 15.7926C26.8482 15.7926 26.9174 15.8111 26.9285 15.8295C26.9656 15.8873 27.3089 15.8025 27.3089 15.7373C27.3089 15.7213 27.3299 15.7115 27.3521 15.7115C27.3916 15.7115 27.3978 15.6562 27.3978 15.3967C27.3978 15.2246 27.3793 15.0365 27.3632 14.9836C27.3447 14.9258 27.3175 14.7685 27.304 14.6332C27.2718 14.2804 27.2027 13.689 27.1916 13.689C27.1891 13.689 27.1829 13.5992 27.178 13.4923C27.1706 13.3619 27.152 13.2808 27.1199 13.2488C27.0903 13.2168 27.0779 13.1726 27.0903 13.1111C27.0989 13.0607 27.0928 12.9464 27.0767 12.8591C27.0397 12.6759 26.989 12.2763 26.9754 12.0427C26.968 11.9505 26.9495 11.8066 26.9335 11.7193C26.9174 11.6345 26.91 11.5287 26.9174 11.4894C26.9248 11.4476 26.9199 11.3591 26.9088 11.2878C26.8878 11.1685 26.8742 11.1525 26.7964 11.1501C26.7482 11.1451 26.6655 11.166 26.6099 11.1894C26.5543 11.2152 26.4308 11.2398 26.3332 11.2447C26.2344 11.2497 26.0961 11.2656 26.0245 11.2816C25.8961 11.3111 25.8195 11.3001 25.7824 11.2472C25.7689 11.2288 25.7367 11.2288 25.6836 11.2521C25.6441 11.2706 25.5503 11.289 25.4811 11.289C25.4119 11.289 25.3107 11.3099 25.2551 11.3345L25.1057 11.4083C25.034 11.4427 24.8661 11.4378 24.829 11.3997C24.7809 11.3542 24.156 11.3652 24.0831 11.4181C24.051 11.439 24.0053 11.4501 23.9818 11.4439C23.9584 11.4353 23.9176 11.4464 23.8892 11.4697C23.8633 11.4956 23.7904 11.5226 23.7324 11.5312C23.6397 11.5496 23.6237 11.5447 23.6126 11.4894C23.594 11.4341 23.5829 11.4304 23.4668 11.4501C23.3977 11.4636 23.2853 11.471 23.2186 11.4685C23.1519 11.4636 23.0618 11.4771 23.0185 11.4919C22.9728 11.5103 22.9247 11.5103 22.8938 11.4968C22.8666 11.4808 22.8135 11.4833 22.7629 11.4992C22.6987 11.5201 22.669 11.5177 22.6295 11.4857C22.5628 11.4279 22.3393 11.4009 22.2516 11.4427C22.196 11.4685 22.1479 11.4636 22.0231 11.4218C21.8614 11.3665 21.7786 11.3714 21.523 11.4451C21.4328 11.471 21.36 11.4771 21.3266 11.4611C21.3007 11.4476 21.2204 11.4353 21.1475 11.4353C21.0747 11.4353 21.0067 11.4242 21.0006 11.4083C20.9709 11.3628 20.4275 11.3529 20.2127 11.3972C20.0509 11.4316 19.9916 11.4341 19.941 11.4046C19.9014 11.3837 19.8212 11.3787 19.7335 11.3886C19.4568 11.4255 19.0814 11.391 19.0283 11.3271C18.9987 11.2927 18.9801 11.2902 18.911 11.3185C18.8492 11.3419 18.8023 11.3443 18.7455 11.321C18.7023 11.305 18.5726 11.2915 18.4553 11.2915C18.3404 11.2865 18.165 11.2755 18.0712 11.2644C17.9724 11.2533 17.8612 11.2558 17.8242 11.2669C17.7822 11.2828 17.7093 11.2804 17.6402 11.2619C17.5315 11.2349 17.1906 11.2066 16.9189 11.2066C16.8498 11.2066 16.7806 11.1992 16.767 11.1906C16.751 11.182 16.6238 11.1673 16.4818 11.1587C16.3434 11.1513 16.215 11.1328 16.1989 11.1193C16.1829 11.1033 16.1409 11.0874 16.1063 11.0874C16.0742 11.0874 16.0297 11.0738 16.0125 11.0554C15.9803 11.0234 15.7815 10.9816 15.3172 10.9066C15.2048 10.8882 15.1072 10.8673 15.0961 10.8587C15.0566 10.8132 14.9417 10.7689 14.8639 10.7689C14.8158 10.7689 14.7528 10.7579 14.7231 10.7431C14.696 10.7296 14.6083 10.6951 14.5255 10.6693C14.2353 10.5685 14.097 10.5132 14.0649 10.4812C14.0488 10.4603 14.0093 10.4468 13.9846 10.4468C13.9574 10.4468 13.9154 10.4234 13.8858 10.3915C13.8599 10.362 13.7981 10.33 13.75 10.3202C13.6993 10.3115 13.603 10.2464 13.5264 10.1775C13.4548 10.1087 13.3634 10.0349 13.3239 10.0103C13.2572 9.96852 13.2411 9.91811 13.2498 9.80131C13.2547 9.77426 13.2362 9.74598 13.2103 9.73737C13.1831 9.72876 13.167 9.6845 13.167 9.62918C13.167 9.57877 13.151 9.51237 13.1349 9.48287C13.1189 9.4509 13.1028 9.35869 13.1004 9.27877C13.1004 9.19885 13.0843 9.12754 13.0732 9.11771C13.0596 9.11033 13.0497 9.05992 13.0497 9.00705C13.0497 8.95418 13.0411 8.90131 13.0312 8.89271C13.0201 8.8841 13.0077 8.82631 13.004 8.76484C12.988 8.49927 12.9373 8.42304 12.8064 8.45747C12.7484 8.47345 12.6385 8.66648 12.6385 8.75132C12.6385 8.78328 12.6311 8.81525 12.6224 8.82509C12.5903 8.85951 12.5767 9.43737 12.6088 9.45582C12.6249 9.46442 12.6484 9.57754 12.6595 9.7054C12.6681 9.83204 12.6866 9.9513 12.7015 9.96729C12.7471 10.0251 12.8398 10.5661 12.8768 10.9693C12.8953 11.1869 12.9188 11.3849 12.925 11.407C12.9336 11.4328 12.946 11.5005 12.9509 11.5632C12.9583 11.6222 12.9769 11.696 12.9904 11.7218C13.0016 11.7488 13.025 11.8546 13.0361 11.9603C13.0448 12.066 13.0658 12.1902 13.0794 12.2382C13.0929 12.2837 13.1189 12.4312 13.1374 12.5591C13.1559 12.6894 13.1905 12.805 13.214 12.8222C13.2399 12.8406 13.256 12.875 13.256 12.8996C13.256 12.9267 13.3091 13.0029 13.3733 13.0718C13.4375 13.1406 13.4906 13.2144 13.4906 13.2341C13.4906 13.2525 13.5227 13.2685 13.5647 13.2685C13.6228 13.2685 13.6388 13.282 13.6388 13.3423C13.6388 13.4136 13.7561 13.5033 13.8574 13.5033C13.8809 13.5033 13.929 13.5427 13.9636 13.5906C14.0217 13.6668 14.0414 13.6754 14.1291 13.6595C14.2094 13.6459 14.2378 13.6521 14.2724 13.7025C14.2983 13.7369 14.3279 13.7578 14.3415 13.7504C14.3576 13.7418 14.4082 13.7529 14.4564 13.7775C14.5181 13.8095 14.5626 13.8144 14.6182 13.7935C14.7058 13.7615 14.9565 13.8353 14.9565 13.8943C14.9565 13.9447 15.0232 13.9656 15.0998 13.9472C15.1344 13.9386 15.1924 13.9521 15.227 13.9742C15.3258 14.0381 15.5098 14.0664 15.5605 14.0246C15.616 13.9816 15.8556 14.0701 15.8803 14.1463C15.8939 14.1894 15.9235 14.2017 16.0297 14.1968C16.11 14.1918 16.173 14.2054 16.1866 14.2263C16.2026 14.2558 16.2372 14.2607 16.2928 14.2447C16.3385 14.2312 16.4558 14.2189 16.5534 14.2152C16.5991 14.2127 16.6411 14.2238 16.6658 14.2103C16.7003 14.1918 16.7275 14.1463 16.7781 14.1119C16.893 14.0271 17.082 14.0345 17.0931 14.1254C17.0955 14.1463 17.0795 14.1623 17.0857 14.1734C17.0968 14.1869 17.1202 14.155 17.1437 14.1439C17.2017 14.1119 17.261 14.0935 17.2746 14.1009C17.2907 14.1095 17.261 14.1353 17.2796 14.1513C17.2981 14.1697 17.3388 14.1279 17.3969 14.1242C17.4907 14.1156 17.6315 14.1156 17.7476 14.1218C17.7427 14.1451 17.7637 14.1906 17.8328 14.2705C17.8563 14.2963 17.7637 14.2521 17.755 14.2275C17.7476 14.2066 17.7155 14.1881 17.6859 14.1881C17.6587 14.1881 17.6167 14.2066 17.5982 14.2275C17.5772 14.2533 17.5475 14.2705 17.529 14.2705C17.5105 14.2705 17.4858 14.289 17.4759 14.3123C17.4673 14.3357 17.4339 14.3541 17.4043 14.3541L16.872 14.5791C16.8831 14.6025 16.8164 14.632 16.7954 14.6504C16.7535 14.6922 16.7152 14.7353 16.7078 14.7537C16.7003 14.7697 16.6201 14.8115 16.5213 14.8459C16.4249 14.8804 16.3397 14.9148 16.3323 14.9234C16.2953 14.9713 16.1854 15.0156 16.1693 14.9898C16.1483 14.9504 15.9902 14.9504 15.9668 14.9898C15.9556 15.0058 15.9186 15.0168 15.8865 15.0168C15.8173 15.0168 15.5246 15.125 15.2579 15.2504C15.1566 15.2959 15.0615 15.3377 15.0455 15.3377C15.0319 15.3377 15.0134 15.3463 15.0084 15.3586C15.001 15.3722 14.9281 15.4385 14.838 15.5025C14.7503 15.5664 14.6601 15.6402 14.6379 15.6648C14.6083 15.7017 14.5478 15.7152 14.4033 15.7152C14.2378 15.7152 14.2007 15.7238 14.1427 15.784C14.0525 15.8799 13.8957 15.9463 13.7648 15.9488C13.703 15.9488 13.6265 15.9672 13.5944 15.9918C13.5647 16.0152 13.5116 16.0336 13.482 16.0336C13.4499 16.0336 13.3832 16.0656 13.3325 16.1025C13.2819 16.1418 13.2127 16.1799 13.1806 16.1922C13.1461 16.2033 13.1115 16.234 13.1041 16.266C13.0806 16.3459 12.9423 16.4246 12.8274 16.4221C12.7743 16.4197 12.7311 16.4307 12.7311 16.443C12.7311 16.475 12.4755 16.5598 12.3742 16.5598C12.331 16.5598 12.289 16.5709 12.2803 16.5857C12.2692 16.5992 12.2272 16.6226 12.1815 16.6312C12.1383 16.6422 12.0803 16.668 12.0568 16.6889C12.0333 16.7098 11.9209 16.7762 11.8086 16.8353C11.6962 16.8967 11.5961 16.957 11.5875 16.9705C11.5764 16.9865 11.5159 17.0074 11.4541 17.016C11.3924 17.0246 11.2997 17.0664 11.2491 17.1008C11.1985 17.1402 11.1293 17.1697 11.0972 17.1697C11.0602 17.1697 11.033 17.1832 11.033 17.1992C11.033 17.2152 11.0071 17.2262 10.9799 17.2262C10.9502 17.2262 10.8712 17.2693 10.802 17.3197C10.6909 17.3971 10.6613 17.407 10.5328 17.3959C10.3414 17.3775 10.2747 17.4303 10.2698 17.6086C10.2648 17.7463 10.3229 17.9775 10.3784 18.0463C10.3994 18.0697 10.4365 18.1816 10.4637 18.2984C10.4896 18.4152 10.5303 18.5455 10.5513 18.5897C10.5748 18.6328 10.5933 18.6906 10.5933 18.7164C10.5958 18.7434 10.6069 18.7742 10.6205 18.7828C10.6341 18.7914 10.6711 18.8971 10.6971 19.0188C10.7242 19.1381 10.7564 19.234 10.7736 19.234C10.7872 19.234 10.7996 19.2549 10.7996 19.2758C10.7996 19.3176 10.8552 19.5143 10.933 19.7602C10.9564 19.834 10.9762 19.9324 10.9762 19.9828C10.9762 20.0332 10.9898 20.0811 11.0108 20.0885C11.0318 20.0934 11.0478 20.1315 11.0503 20.1684C11.0552 20.2951 11.0984 20.4598 11.1219 20.4463C11.1454 20.4303 11.1812 20.5705 11.1812 20.6774C11.1812 20.7168 11.1997 20.7672 11.2244 20.7893C11.2479 20.8127 11.2664 20.8655 11.2664 20.9037C11.2664 20.9455 11.2825 20.9811 11.2985 20.986C11.3146 20.9934 11.3442 21.0967 11.3578 21.2159C11.3763 21.3438 11.4109 21.4655 11.443 21.5135C11.4801 21.5565 11.501 21.6401 11.501 21.709V21.8282H11.6925C11.7987 21.8282 11.8839 21.8123 11.8839 21.7987C11.8839 21.7692 12.2433 21.5946 12.305 21.5946C12.3235 21.5946 12.3668 21.5762 12.3976 21.5516C12.4298 21.5282 12.494 21.5098 12.5446 21.5061C12.5903 21.5061 12.6484 21.4926 12.6693 21.4717C12.6879 21.4532 12.778 21.4262 12.8719 21.4127C12.9645 21.4016 13.088 21.3807 13.1485 21.3709C13.2078 21.3635 13.2733 21.3389 13.293 21.3131C13.3362 21.2602 13.3671 21.2651 13.4363 21.334C13.5079 21.4028 13.6141 21.4078 13.7351 21.3426C13.8043 21.3082 13.871 21.2996 13.9908 21.3131C14.1402 21.3291 14.1612 21.3241 14.2538 21.2467C14.4057 21.1188 14.5576 21.1041 14.586 21.2196C14.6021 21.275 14.7244 21.2996 14.7244 21.2467C14.7244 21.2332 14.8182 21.2209 14.9318 21.2233C15.0813 21.2233 15.1504 21.2123 15.19 21.1754C15.2171 21.1496 15.2641 21.1274 15.2912 21.1274C15.3184 21.1274 15.3394 21.1164 15.3394 21.1016C15.3394 21.0869 15.4011 21.0672 15.4777 21.0561C15.6321 21.0352 15.779 20.9799 15.779 20.9479C15.779 20.9344 15.7976 20.9246 15.8223 20.9246C15.847 20.9246 15.8655 20.9356 15.8655 20.9541C15.8655 20.9676 15.8976 20.9811 15.9396 20.9811C15.9766 20.9811 16.0433 20.9946 16.0866 21.018C16.1372 21.0389 16.1693 21.0414 16.1804 21.0229C16.194 21.0069 16.2743 20.9774 16.362 20.9614C16.4521 20.9455 16.6411 20.9061 16.7831 20.8766C16.9263 20.8496 17.0597 20.8078 17.0844 20.7844C17.1165 20.75 17.1585 20.7475 17.308 20.7758C17.5957 20.8262 17.6995 20.8188 17.7501 20.7438C17.7871 20.6959 17.8032 20.6885 17.8378 20.718C17.8699 20.7438 17.9502 20.6762 17.939 20.7229C17.9205 20.8028 17.9069 20.8582 17.8995 20.8951C17.897 20.9 17.8946 20.9086 17.8909 20.916C17.8452 21.0143 17.7451 21.0401 17.7044 21.0401C17.6192 21.0401 17.5611 21.0905 17.5611 21.1643C17.5611 21.1914 17.5426 21.2172 17.5179 21.2172C17.4907 21.2172 17.4352 21.243 17.3956 21.275C17.3537 21.3069 17.2919 21.334 17.2598 21.334C17.2227 21.334 17.1795 21.3475 17.1635 21.3635C17.1474 21.3795 17.0758 21.3979 17.0042 21.4004C16.8918 21.4053 16.8683 21.4164 16.8313 21.4987C16.8016 21.5602 16.767 21.5922 16.725 21.5922C16.6905 21.5946 16.6398 21.6266 16.6127 21.6684C16.5731 21.7274 16.5484 21.7397 16.5003 21.7262C16.4657 21.7151 16.3533 21.7004 16.2533 21.6942C16.0989 21.6868 16.0532 21.6991 15.9655 21.7557C15.9075 21.795 15.8531 21.8295 15.8433 21.8295C15.8334 21.8295 15.779 21.8614 15.7235 21.9057C15.6197 21.9856 15.4604 22.0643 15.2196 22.1651C15.148 22.1922 15.0702 22.234 15.0418 22.2549C15.0183 22.2782 14.9405 22.3127 14.8689 22.3397C14.7948 22.3631 14.6564 22.4332 14.5626 22.4983C14.3341 22.6446 14.1316 22.7 14.0402 22.6471C13.997 22.6176 13.9735 22.6151 13.9661 22.6397C13.9587 22.6581 13.9241 22.6717 13.8833 22.6717C13.8438 22.6717 13.7771 22.7061 13.7376 22.7454C13.6549 22.8278 13.6339 22.8327 13.5882 22.7872C13.5672 22.7663 13.5425 22.7713 13.503 22.8106C13.3758 22.9385 13.2078 23.0036 13.1275 22.9594C13.0905 22.936 13.0633 22.9483 13.0102 23.0024C12.9732 23.0442 12.883 23.0922 12.8138 23.1106C12.7447 23.129 12.5854 23.1844 12.468 23.2323C12.3458 23.2803 12.1988 23.3258 12.1432 23.3405C12.0309 23.3639 11.9123 23.4254 11.8641 23.4831C11.8345 23.52 11.6616 23.5704 11.5023 23.5938C11.4652 23.5987 11.4146 23.6307 11.3899 23.6651C11.3553 23.7155 11.3232 23.7266 11.254 23.7155C11.1688 23.702 11.0725 23.7229 10.9268 23.7819C10.8601 23.8077 10.4686 23.8987 10.418 23.8987C10.3994 23.8987 10.3488 23.9307 10.3056 23.97C10.2636 24.0094 10.2043 24.0438 10.1771 24.0438C10.15 24.0438 10.1191 24.0549 10.1129 24.0672C10.1043 24.0807 9.99313 24.104 9.86469 24.1126C9.73748 24.1213 9.59546 24.152 9.5473 24.1741C9.49913 24.1975 9.33982 24.243 9.18792 24.2725C9.03848 24.302 8.9051 24.3462 8.89028 24.3659C8.84706 24.4274 8.91128 25.1294 8.95698 25.1024C8.97056 25.095 8.98291 25.1553 8.98291 25.2352C8.98291 25.3151 8.99896 25.4282 9.0249 25.4811C9.04836 25.5389 9.05701 25.6298 9.05083 25.7036C9.04219 25.7995 9.05824 25.8868 9.11505 26.038C9.17433 26.1893 9.19533 26.295 9.19533 26.4511C9.19533 26.6073 9.20644 26.6688 9.23855 26.6897C9.29166 26.7192 9.33982 26.9811 9.34723 27.2725C9.3497 27.3893 9.36329 27.463 9.38922 27.4716C9.40775 27.4765 9.4238 27.5331 9.4238 27.5983C9.4238 27.6634 9.43244 27.7101 9.44973 27.7101C9.48184 27.7101 9.50778 27.8343 9.53989 28.1392C9.55347 28.2696 9.58558 28.4208 9.60905 28.4737C9.63498 28.5265 9.66215 28.6003 9.6708 28.6323C9.68685 28.6876 9.71031 28.6962 9.83011 28.6937C10.0462 28.6913 10.3574 28.7171 10.3784 28.7392C10.4217 28.7823 10.4958 28.7528 10.5835 28.6544C10.6711 28.5585 10.6847 28.5536 10.9194 28.5401C11.2578 28.5167 11.3529 28.5056 11.4887 28.4687C11.6431 28.4294 11.6505 28.4294 11.6505 28.4823C11.6505 28.5167 11.6715 28.5253 11.7493 28.5093C11.8073 28.4983 11.8555 28.5019 11.8666 28.5204C11.8777 28.5388 11.9061 28.5437 11.9284 28.5364C11.9555 28.5253 11.9716 28.5364 11.9716 28.5622C11.9716 28.604 12.0309 28.6396 12.0889 28.6396C12.105 28.6396 12.1395 28.5917 12.1692 28.529C12.2124 28.4368 12.2359 28.4208 12.3285 28.4147C12.4001 28.4073 12.4396 28.4171 12.4396 28.438C12.4396 28.4614 12.4668 28.4651 12.5199 28.4515C13.0448 28.3188 13.4017 28.3003 13.5314 28.3778C13.624 28.4331 13.6808 28.4282 13.7635 28.3569C13.8006 28.3249 13.8623 28.3175 14.0118 28.331C14.5762 28.3839 14.6268 28.3839 14.7392 28.336C14.7985 28.3101 14.8775 28.2905 14.9121 28.2905C14.9467 28.2905 14.9924 28.2745 15.0109 28.256C15.0381 28.229 15.064 28.2302 15.1307 28.2696C15.19 28.3065 15.2776 28.32 15.432 28.3175C15.5469 28.3175 15.7408 28.336 15.8606 28.3655C16.0656 28.4134 16.0791 28.4134 16.1051 28.3679C16.1261 28.331 16.1693 28.3175 16.257 28.3175C16.3237 28.3175 16.4546 28.32 16.5472 28.32C16.6398 28.3224 16.7152 28.3114 16.7152 28.2966C16.7152 28.2782 16.7683 28.2622 16.8325 28.2511C16.8967 28.2401 16.9498 28.2167 16.9498 28.2032C16.9498 28.1872 16.9683 28.1761 16.9918 28.1761C17.019 28.1761 17.0375 28.1847 17.0375 28.197C17.0375 28.245 17.2129 28.3212 17.3252 28.3212C17.4179 28.3212 17.4636 28.3028 17.5352 28.229C17.6414 28.1208 17.6785 28.1392 17.7242 28.3274C17.7587 28.4675 17.8353 28.4995 17.9526 28.4282C17.9897 28.4048 18.1021 28.3827 18.2033 28.3802C18.3713 28.3753 18.3849 28.3778 18.4133 28.4491C18.4614 28.5769 18.6319 28.5819 18.7677 28.4577C18.8048 28.4233 18.8579 28.3913 18.8801 28.3888C18.9073 28.3888 18.9468 28.3753 18.9764 28.363C19.0061 28.3495 19.0481 28.3679 19.0913 28.411C19.1901 28.5093 19.3383 28.4687 19.568 28.2708C19.7137 28.1491 19.7779 28.1442 19.8002 28.2597C19.8088 28.3077 19.8088 28.3655 19.8002 28.3876C19.7755 28.4515 19.8459 28.4774 20.0533 28.481C20.1571 28.481 20.2818 28.4946 20.325 28.5069C20.3893 28.5228 20.4214 28.5142 20.4819 28.4589C20.5325 28.4134 20.5943 28.3901 20.6782 28.3851C20.8808 28.3765 21.0327 28.3433 21.0673 28.3003C21.0969 28.2634 21.1092 28.2733 21.1414 28.3618C21.1784 28.4601 21.1871 28.47 21.2747 28.454C21.3995 28.4331 21.5304 28.3298 21.5946 28.1995C21.6428 28.106 21.8342 27.9401 21.8959 27.9401C21.9095 27.9401 21.9416 27.9192 21.9676 27.8946C21.9725 27.8921 21.9787 27.8946 21.9861 27.897C21.9997 27.8897 22.0133 27.8835 22.0281 27.8761C22.0466 27.8577 22.0713 27.8442 22.1084 27.8442L22.1318 27.8097C22.1318 27.8737 22.196 27.8577 22.2751 27.7802C22.3146 27.7409 22.3578 27.7065 22.3714 27.7065C22.3973 27.7065 22.3986 27.7224 22.4085 27.9106C22.4245 28.197 22.4295 28.2179 22.4887 28.2548C22.532 28.2843 22.5579 28.2843 22.5814 28.2622C22.6394 28.2032 22.7197 28.2278 22.7197 28.3052C22.7197 28.3421 22.7308 28.3765 22.7493 28.3765C22.7629 28.3765 22.7765 28.411 22.7765 28.4478C22.7765 28.4872 22.7876 28.5253 22.8061 28.5376C22.8358 28.556 23.0111 28.4761 23.0111 28.4417C23.0111 28.3802 23.1927 28.32 23.373 28.32C23.5039 28.32 23.5755 28.304 23.6052 28.2745C23.6311 28.2511 23.699 28.2327 23.7571 28.2327C23.8151 28.2327 23.8583 28.2167 23.8583 28.2032C23.8583 28.127 23.9707 28.1897 24.0448 28.3089C24.093 28.3827 24.1535 28.4491 24.1782 28.4577C24.2054 28.4663 24.2449 28.4946 24.2659 28.5155C24.2869 28.5388 24.319 28.545 24.3326 28.5364C24.3671 28.513 24.4795 28.6261 24.4734 28.679C24.4647 28.7663 24.4808 28.7872 24.5796 28.7872C24.6438 28.7872 24.6882 28.7712 24.6994 28.7442C24.708 28.7183 24.7339 28.7011 24.7574 28.7011C24.7809 28.7011 24.7969 28.6876 24.7969 28.6692C24.7969 28.6298 24.9167 28.5315 24.9649 28.5265C24.9834 28.5265 25.0365 28.4761 25.0797 28.4159C25.2131 28.2302 25.3267 28.1749 25.3267 28.2892C25.3267 28.3556 25.3984 28.4171 25.5429 28.4798C25.6207 28.5118 25.6676 28.5167 25.6886 28.4958C25.7306 28.454 25.8516 28.4589 25.8516 28.5032C25.8516 28.5216 25.8812 28.5769 25.9208 28.6249C25.98 28.6987 26.001 28.7073 26.0937 28.6888C26.1517 28.6778 26.232 28.6433 26.2727 28.6126C26.3579 28.5437 26.5234 28.5327 26.5444 28.5942C26.5531 28.62 26.5975 28.6519 26.6432 28.6679C26.7124 28.6913 26.7371 28.6839 26.7902 28.6384C26.8272 28.6089 26.8841 28.5831 26.9236 28.5831C27.0038 28.5831 27.1372 28.5241 27.1372 28.4909C27.1372 28.4774 27.1582 28.4651 27.1805 28.4651C27.2014 28.4651 27.2607 28.4331 27.3089 28.3913C27.4151 28.304 27.4237 28.304 27.4361 28.3839C27.4435 28.4343 27.4657 28.4478 27.53 28.4503C27.5756 28.4528 27.6238 28.4761 27.6386 28.5032C27.6732 28.5647 27.7374 28.5647 27.8436 28.5032C27.956 28.4368 28.0746 28.4872 28.0746 28.5966C28.0746 28.6901 28.1808 28.7429 28.2845 28.6974C28.4117 28.6396 28.4895 28.5917 28.5291 28.5388C28.5612 28.4909 28.571 28.4958 28.6279 28.5917C28.6649 28.6532 28.6921 28.738 28.6921 28.7847C28.6921 28.8769 28.7081 28.8856 28.9341 28.9175C29.0218 28.9286 29.107 28.9224 29.1626 28.8991C29.2268 28.872 29.2589 28.872 29.291 28.8966C29.3182 28.9224 29.3676 28.9237 29.459 28.9015C29.6134 28.8696 29.89 28.904 29.9271 28.9605C29.9781 29.0458 30.0242 29.0712 30.0654 29.0368C30.1296 28.9778 30.1876 28.9937 30.1876 29.0712C30.1876 29.0983 30.2222 29.1646 30.2654 29.2163C30.3247 29.2901 30.3717 29.3122 30.4445 29.3146C30.4976 29.3171 30.5507 29.306 30.5618 29.2913C30.5705 29.2728 30.6335 29.2323 30.6977 29.1929C30.7619 29.1511 30.8224 29.1155 30.8286 29.1032C30.8706 29.0478 30.9669 29.0478 31.02 29.1056C31.0497 29.1351 31.0892 29.1634 31.1102 29.1634C31.1287 29.1634 31.1522 29.1819 31.1608 29.2028C31.1719 29.2347 31.2275 29.2396 31.393 29.2298C31.5338 29.2187 31.635 29.2273 31.6783 29.2507C31.7153 29.2716 31.7524 29.2741 31.7635 29.2581C31.7907 29.2151 32.0352 29.2323 32.1315 29.2839C32.1822 29.311 32.2464 29.3614 32.2748 29.3946C32.3069 29.429 32.36 29.456 32.397 29.456C32.4341 29.456 32.4711 29.4769 32.4798 29.4991C32.4909 29.5286 32.5391 29.5421 32.6552 29.5421C32.7614 29.5421 32.8256 29.5556 32.849 29.5851C32.8725 29.611 32.9083 29.6282 32.9392 29.6282C33.0108 29.6282 33.2319 29.8409 33.2319 29.9122C33.2319 29.9515 33.2578 29.9786 33.3035 29.9896C33.3455 29.9982 33.3801 30.0241 33.3801 30.0474C33.3801 30.0683 33.4233 30.1237 33.4814 30.1667C33.6258 30.2749 33.7185 30.2429 33.8309 30.0314C33.9074 29.8913 33.9136 29.8507 33.9111 29.6319L33.9025 29.6245ZM17.9427 14.1341H17.9452L17.9477 14.1365C17.9477 14.1365 17.9452 14.1365 17.9427 14.1341Z" fill="white"/>
</g>
</g>
<defs>
<filter id="filter0_f_12535_18615" x="-48.8699" y="-11.0184" width="144.615" height="77.9352" filterUnits="userSpaceOnUse" color-interpolation-filters="sRGB">
<feFlood flood-opacity="0" result="BackgroundImageFix"/>
<feBlend mode="normal" in="SourceGraphic" in2="BackgroundImageFix" result="shape"/>
<feGaussianBlur stdDeviation="7.11075" result="effect1_foregroundBlur_12535_18615"/>
</filter>
<filter id="filter1_f_12535_18615" x="-2.34375" y="-2.10059" width="44.6875" height="44.6875" filterUnits="userSpaceOnUse" color-interpolation-filters="sRGB">
<feFlood flood-opacity="0" result="BackgroundImageFix"/>
<feBlend mode="normal" in="SourceGraphic" in2="BackgroundImageFix" result="shape"/>
<feGaussianBlur stdDeviation="0.9375" result="effect1_foregroundBlur_12535_18615"/>
</filter>
<filter id="filter2_f_12535_18615" x="-6.69922" y="-6.45605" width="53.3984" height="53.3984" filterUnits="userSpaceOnUse" color-interpolation-filters="sRGB">
<feFlood flood-opacity="0" result="BackgroundImageFix"/>
<feBlend mode="normal" in="SourceGraphic" in2="BackgroundImageFix" result="shape"/>
<feGaussianBlur stdDeviation="2.8125" result="effect1_foregroundBlur_12535_18615"/>
</filter>
<filter id="filter3_f_12535_18615" x="-3.125" y="-2.88184" width="46.25" height="46.25" filterUnits="userSpaceOnUse" color-interpolation-filters="sRGB">
<feFlood flood-opacity="0" result="BackgroundImageFix"/>
<feBlend mode="normal" in="SourceGraphic" in2="BackgroundImageFix" result="shape"/>
<feGaussianBlur stdDeviation="1.25" result="effect1_foregroundBlur_12535_18615"/>
</filter>
<filter id="filter4_f_12535_18615" x="-1.09375" y="-0.850586" width="42.1875" height="42.1875" filterUnits="userSpaceOnUse" color-interpolation-filters="sRGB">
<feFlood flood-opacity="0" result="BackgroundImageFix"/>
<feBlend mode="normal" in="SourceGraphic" in2="BackgroundImageFix" result="shape"/>
<feGaussianBlur stdDeviation="0.46875" result="effect1_foregroundBlur_12535_18615"/>
</filter>
<linearGradient id="paint0_linear_12535_18615" x1="-34.6484" y1="27.9492" x2="81.5234" y2="27.9492" gradientUnits="userSpaceOnUse">
<stop stop-color="#6100FF"/>
<stop offset="0.15625" stop-color="#6201FF"/>
<stop offset="0.328125" stop-color="#6303FF"/>
<stop offset="0.473958" stop-color="#6706FF"/>
<stop offset="0.526042" stop-color="#6B0AFF"/>
<stop offset="0.578125" stop-color="#7110FF"/>
<stop offset="0.630208" stop-color="#7818FF"/>
<stop offset="0.682292" stop-color="#801FFF"/>
<stop offset="0.729167" stop-color="#8728FF"/>
<stop offset="0.776042" stop-color="#8F2FFF"/>
<stop offset="0.822917" stop-color="#9637FF"/>
<stop offset="0.869792" stop-color="#9C3DFF"/>
<stop offset="0.916667" stop-color="#A041FF"/>
<stop offset="0.958333" stop-color="#A444FF"/>
<stop offset="0.979167" stop-color="#A546FF"/>
<stop offset="1" stop-color="#A647FF"/>
</linearGradient>
<linearGradient id="paint1_linear_12535_18615" x1="60" y1="40.2432" x2="60" y2="80.2432" gradientUnits="userSpaceOnUse">
<stop stop-color="white"/>
<stop offset="1" stop-color="white" stop-opacity="0"/>
</linearGradient>
<linearGradient id="paint2_linear_12535_18615" x1="20" y1="40.2432" x2="20" y2="20.2432" gradientUnits="userSpaceOnUse">
<stop stop-color="white"/>
<stop offset="1" stop-color="white" stop-opacity="0"/>
</linearGradient>
<linearGradient id="paint3_linear_12535_18615" x1="20" y1="40.2432" x2="20" y2="0.243166" gradientUnits="userSpaceOnUse">
<stop stop-color="#3E1FFF"/>
<stop offset="0.34375" stop-color="#6248FF" stop-opacity="0.0903125"/>
</linearGradient>
<linearGradient id="paint4_linear_12535_18615" x1="20" y1="40.2432" x2="20" y2="0.243166" gradientUnits="userSpaceOnUse">
<stop stop-color="white"/>
<stop offset="0.34375" stop-color="white" stop-opacity="0.8"/>
<stop offset="1" stop-color="white" stop-opacity="0.21"/>
</linearGradient>
<clipPath id="clip0_12535_18615">
<rect width="40" height="40" rx="9.14062" fill="white"/>
</clipPath>
<clipPath id="clip1_12535_18615">
<rect width="40" height="40" rx="8.97001" fill="white"/>
</clipPath>
</defs>
</svg>
